# xmcd CD database file
#
# Track frame offsets:
#	150
#	8333
#	20592
#	30679
#	42964
#	56429
#	69762
#	82418
#	94626
#	106539
#	118134
#	131994
#	145045
#	159648
#	170435
#	179982
#
# Disc length: 3776 seconds
#
# Revision: 2
# Processed by: cddbd v1.5.2PL0 Copyright (c) Steve Scherf et al.
# Submitted via: CDex 1.51
#
DISCID=d30ebe10
DTITLE=Various Artist - Rare Trax Vol. 7 - Perlen der fruehen Popmusik
DYEAR=1998
DGENRE=Pop
TTITLE0=Peter Schulze - Intro
TTITLE1=The Boswell Sisters - Rock'n'Roll-1934
TTITLE2=Lee Denson - The Pied Piper-1956
TTITLE3=The Pied Piper - My Happiness-1948
TTITLE4=Louis Jordan - Inflation Blues-1948
TTITLE5=Dave Bartholomew - Country Boy-1949
TTITLE6=Delmore Brothers - Blues Stay Away From Me-1949
TTITLE7=Wynonie Harris - Bloodshop Eyes-1951
TTITLE8=Earl Bostic - Flamingo-1951
TTITLE9=LaVerne Baker and The Todd Rhodes Orch. - Trying-1952
TTITLE10=Jo Stafford - You Belong To Me-1952
TTITLE11=Billy Eckstine - Prisoner Of Love-1945
TTITLE12=Dinah Washington - Evil Gal Blues-1943
TTITLE13=Ray Charles - I Wonder Who's Kissing Her Now-1949
TTITLE14=Les Paul and Mary Ford - How High The Moon-1951
TTITLE15=Radiosendung Radio Bremen - Roll Over Beethoven
EXTD=Rolling Stone Zeitschrift (Dezember 1998) YEAR: 1998
EXTT0=
EXTT1=
EXTT2=
EXTT3=
EXTT4=
EXTT5=
EXTT6=
EXTT7=
EXTT8=
EXTT9=
EXTT10=
EXTT11=
EXTT12=
EXTT13=
EXTT14=
EXTT15=
PLAYORDER=
